<svg width="24" height="30" viewBox="0 0 24 30" fill="none" xmlns="http://www.w3.org/2000/svg">
<path d="M1.47402 23.1432L0.6802 22.535H0.680199L1.47402 23.1432ZM3.02466 18.7836L2.02466 18.7713V18.7836H3.02466ZM3.0572 16.1478L4.0572 16.1601V16.1478H3.0572ZM22.5341 23.1643L23.34 22.5723L23.34 22.5723L22.5341 23.1643ZM21.0418 18.7836L20.0418 18.7706V18.7836H21.0418ZM21.0744 16.2784L22.0744 16.2914V16.2784H21.0744ZM17.2666 24.3859C17.2666 23.8336 16.8189 23.3859 16.2666 23.3859C15.7143 23.3859 15.2666 23.8336 15.2666 24.3859H17.2666ZM8.73325 24.3859C8.73325 23.8336 8.28554 23.3859 7.73325 23.3859C7.18097 23.3859 6.73325 23.8336 6.73325 24.3859H8.73325ZM0.406779 7.61119C0.19892 8.12287 0.445214 8.70617 0.956891 8.91403C1.46857 9.12188 2.05187 8.87559 2.25973 8.36391L0.406779 7.61119ZM5.55765 4.65476C6.04531 4.39552 6.23048 3.79004 5.97124 3.30238C5.71199 2.81472 5.10651 2.62955 4.61885 2.88879L5.55765 4.65476ZM19.3638 2.90518C18.8789 2.64081 18.2715 2.81958 18.0072 3.30448C17.7428 3.78938 17.9216 4.39678 18.4065 4.66115L19.3638 2.90518ZM21.7361 8.34243C21.9384 8.85632 22.519 9.10889 23.0329 8.90656C23.5468 8.70424 23.7994 8.12363 23.5971 7.60974L21.7361 8.34243ZM2.26783 23.7513C3.14625 22.6047 4.02466 20.8857 4.02466 18.7836H2.02466C2.02466 20.3196 1.37988 21.6217 0.6802 22.535L2.26783 23.7513ZM4.02458 18.796L4.05712 16.1601L2.05728 16.1354L2.02473 18.7713L4.02458 18.796ZM23.34 22.5723C22.6699 21.6602 22.0418 20.3443 22.0418 18.7836H20.0418C20.0418 20.886 20.8844 22.6078 21.7282 23.7564L23.34 22.5723ZM22.0417 18.7966L22.0743 16.2914L20.0744 16.2654L20.0419 18.7706L22.0417 18.7966ZM22.0744 16.2784C22.0744 10.7488 17.5559 6.28066 11.9999 6.28066V8.28066C16.4673 8.28066 20.0744 11.8694 20.0744 16.2784H22.0744ZM21.991 25.3859C22.7865 25.3859 23.2998 24.8313 23.5122 24.3365C23.7233 23.8449 23.7622 23.1469 23.34 22.5723L21.7282 23.7564C21.6801 23.6909 21.6686 23.6304 21.6669 23.6003C21.6653 23.5727 21.6702 23.5573 21.6744 23.5475C21.6784 23.5384 21.694 23.5057 21.7419 23.4685C21.7963 23.4261 21.8847 23.3859 21.991 23.3859V25.3859ZM4.0572 16.1478C4.0572 11.8109 7.60526 8.28066 11.9999 8.28066V6.28066C6.51673 6.28066 2.0572 10.6903 2.0572 16.1478H4.0572ZM2.0101 23.3859C2.11904 23.3859 2.2088 23.4278 2.26276 23.4706C2.30991 23.508 2.32407 23.5398 2.32691 23.5466C2.33008 23.5542 2.33469 23.5678 2.33284 23.5943C2.3308 23.6234 2.31865 23.685 2.26784 23.7513L0.680199 22.535C0.239592 23.1101 0.274038 23.8193 0.480558 24.3153C0.688187 24.814 1.20147 25.3859 2.0101 25.3859V23.3859ZM21.991 23.3859H2.0101V25.3859H21.991V23.3859ZM15.2666 24.3859C15.2666 25.9419 13.8787 27.3333 11.9999 27.3333V29.3333C14.834 29.3333 17.2666 27.1901 17.2666 24.3859H15.2666ZM11.9999 27.3333C10.1211 27.3333 8.73325 25.9419 8.73325 24.3859H6.73325C6.73325 27.1901 9.16588 29.3333 11.9999 29.3333V27.3333ZM13.8444 4.47364C13.8444 5.45919 13.0311 6.28066 11.9999 6.28066V8.28066C14.1106 8.28066 15.8444 6.58865 15.8444 4.47364H13.8444ZM11.9999 6.28066C10.9687 6.28066 10.1555 5.45919 10.1555 4.47364H8.15547C8.15547 6.58865 9.88922 8.28066 11.9999 8.28066V6.28066ZM10.1555 4.47364C10.1555 3.4881 10.9687 2.66663 11.9999 2.66663V0.666626C9.88922 0.666626 8.15547 2.35864 8.15547 4.47364H10.1555ZM11.9999 2.66663C13.0311 2.66663 13.8444 3.4881 13.8444 4.47364H15.8444C15.8444 2.35864 14.1106 0.666626 11.9999 0.666626V2.66663ZM2.25973 8.36391C2.90675 6.77116 4.06115 5.4503 5.55765 4.65476L4.61885 2.88879C2.68469 3.91699 1.21998 5.60936 0.406779 7.61119L2.25973 8.36391ZM18.4065 4.66115C19.9402 5.49735 21.1254 6.79136 21.7361 8.34243L23.5971 7.60974C22.8006 5.58682 21.2748 3.94707 19.3638 2.90518L18.4065 4.66115Z" fill="black"/>
</svg>
